<svg data-v-fde0c5aa="" xmlns="http://www.w3.org/2000/svg" viewBox="0 0 300 300" class="icon"><!----><defs data-v-fde0c5aa=""><!----></defs><rect data-v-fde0c5aa="" fill="#F47973" x="0" y="0" width="300px" height="300px" class="logo-background-square"></rect><!----><defs data-v-fde0c5aa=""><!----></defs><g data-v-fde0c5aa="" id="1a747ff1-3e31-4f2f-b87b-6a4e46903f4c" fill="#5c6ac4" stroke="none" transform="matrix(2.4444444444444446,0,0,2.4444444444444446,27.777777777777764,27.777777777777764)"><path d="M69.286 11.429c10.634 0 19.286 8.651 19.286 19.286v38.571c0 10.634-8.652 19.286-19.286 19.286H30.714c-10.634 0-19.286-8.651-19.286-19.286V30.714c0-10.634 8.652-19.286 19.286-19.286h38.572m0-6.428H30.714C16.513 5 5 16.512 5 30.714v38.571C5 83.488 16.513 95 30.714 95h38.571C83.487 95 95 83.488 95 69.286V30.714C95 16.512 83.487 5 69.286 5z"></path><circle cx="30.714" cy="30.714" r="6.429"></circle><circle cx="69.286" cy="69.286" r="6.429"></circle><circle cx="69.286" cy="30.714" r="6.429"></circle><circle cx="30.714" cy="69.286" r="6.429"></circle></g><!----></svg>