<svg data-v-423bf9ae="" xmlns="http://www.w3.org/2000/svg" viewBox="0 0 60 60" class="icon"><!----><!----><!----><!----><g data-v-423bf9ae="" id="63067599-d8b7-4828-b6c1-7c3cc22fc472" transform="matrix(0.6666666666666666,0,0,0.6666666666666666,-3.3333333333333286,-3.3333333333333286)" stroke="none" fill="black"><path d="M69.286 11.429c10.634 0 19.286 8.651 19.286 19.286v38.571c0 10.634-8.652 19.286-19.286 19.286H30.714c-10.634 0-19.286-8.651-19.286-19.286V30.714c0-10.634 8.652-19.286 19.286-19.286h38.572m0-6.428H30.714C16.513 5 5 16.512 5 30.714v38.571C5 83.488 16.513 95 30.714 95h38.571C83.487 95 95 83.488 95 69.286V30.714C95 16.512 83.487 5 69.286 5z"></path><circle cx="30.714" cy="30.714" r="6.429"></circle><circle cx="69.286" cy="69.286" r="6.429"></circle><circle cx="69.286" cy="30.714" r="6.429"></circle><circle cx="30.714" cy="69.286" r="6.429"></circle></g><!----></svg>